<mxfile host="app.diagrams.net" modified="2020-11-12T12:14:08.134Z" agent="5.0 (iPad; CPU OS 14_0 like Mac OS X) AppleWebKit/605.1.15 (KHTML, like Gecko) CriOS/86.0.4240.93 Mobile/15E148 Safari/604.1" etag="QF-i3M4sjZHLXYKzXlw_" version="13.9.7" type="github">
  <diagram id="eRFq9h2u7-SIrVxnNJyV" name="Page-1">
    <mxGraphModel dx="526" dy="478" grid="1" gridSize="10" guides="1" tooltips="1" connect="1" arrows="1" fold="1" page="1" pageScale="1" pageWidth="827" pageHeight="1169" math="0" shadow="0">
      <root>
        <mxCell id="0" />
        <mxCell id="1" parent="0" />
        <mxCell id="I8eXRlbTN7uRJuIY-frp-1" value="" style="ellipse;whiteSpace=wrap;html=1;" vertex="1" parent="1">
          <mxGeometry x="200" y="120" width="150" height="60" as="geometry" />
        </mxCell>
        <mxCell id="I8eXRlbTN7uRJuIY-frp-2" value="" style="ellipse;whiteSpace=wrap;html=1;" vertex="1" parent="1">
          <mxGeometry x="90" y="270" width="120" height="70" as="geometry" />
        </mxCell>
        <mxCell id="I8eXRlbTN7uRJuIY-frp-3" value="" style="endArrow=none;html=1;" edge="1" parent="1" source="I8eXRlbTN7uRJuIY-frp-2" target="I8eXRlbTN7uRJuIY-frp-1">
          <mxGeometry width="50" height="50" relative="1" as="geometry">
            <mxPoint x="250" y="280" as="sourcePoint" />
            <mxPoint x="300" y="230" as="targetPoint" />
          </mxGeometry>
        </mxCell>
      </root>
    </mxGraphModel>
  </diagram>
</mxfile>
